<svg xmlns="http://www.w3.org/2000/svg" width="480" height="232" viewBox="0 0 480 232"><defs><radialGradient id="g1s5" cx="88%" cy="8%" r="55%"><stop offset="0%" stop-color="rgba(124,58,237,0.10)"/><stop offset="100%" stop-color="transparent"/></radialGradient><radialGradient id="g2s5" cx="8%" cy="95%" r="60%"><stop offset="0%" stop-color="rgba(2,132,199,0.10)"/><stop offset="100%" stop-color="transparent"/></radialGradient><linearGradient id="accs5" x1="0" y1="0" x2="1" y2="1"><stop offset="0" stop-color="#0284c7"/><stop offset="1" stop-color="#0284c72"/></linearGradient></defs><rect x="0.5" y="0.5" width="479" height="231" rx="12" fill="#eef2f7"/><rect x="0.5" y="0.5" width="479" height="231" rx="12" fill="url(#g1s5)"/><rect x="0.5" y="0.5" width="479" height="231" rx="12" fill="url(#g2s5)"/><rect x="0.5" y="0.5" width="479" height="231" rx="12" fill="none" stroke="#dbe3ee"/><line x1="1" y1="30" x2="479" y2="30" stroke="#dbe3ee"/><circle cx="22" cy="15" r="5" fill="#f87171"/><circle cx="40" cy="15" r="5" fill="#fbbf24"/><circle cx="58" cy="15" r="5" fill="#34d399"/><text x="70" y="20" font-family="Consolas, 'Courier New', monospace" font-size="12" fill="#64748b">Alya</text><circle cx="240" cy="82" r="30" fill="none" stroke="url(#accs5)" stroke-width="4"/><text x="240" y="94" text-anchor="middle" font-family="Consolas, 'Courier New', monospace" font-size="32" font-weight="bold" fill="#1e293b">A</text><text x="240" y="140" text-anchor="middle" font-family="Consolas, 'Courier New', monospace" font-size="12"><tspan fill="#64748b">Write  •  Run  •  Test</tspan></text><rect x="175" y="158" width="130" height="28" rx="14" fill="none" stroke="#0284c7" stroke-width="1.5"/><text x="240" y="177" text-anchor="middle" font-family="Consolas, 'Courier New', monospace" font-size="13"><tspan fill="#0284c7">Docs  ▸</tspan></text><rect x="175" y="194" width="130" height="28" rx="14" fill="none" stroke="#0284c7" stroke-width="1.5"/><text x="240" y="213" text-anchor="middle" font-family="Consolas, 'Courier New', monospace" font-size="13"><tspan fill="#0284c7">Issues  ▸</tspan></text></svg>